<?xml version="1.0" standalone="no"?> <!DOCTYPE svg PUBLIC "-//W3C//DTD SVG 1.0//EN" "http://www.w3.org/TR/2001/REC-SVG-20010904/DTD/svg10.dtd" > <svg xmlns="http://www.w3.org/2000/svg" width="100%" height="100%">
<defs >
<font id="antennacond-regular" horiz-adv-x="400" ><font-face
    font-family="AntennaCond Regular"
    units-per-em="1000"
    panose-1="2 0 5 6 0 0 0 2 0 4"
    ascent="800"
    descent="-200"
    alphabetic="0" />
<missing-glyph horiz-adv-x="180" />
<glyph unicode=" " glyph-name="space" horiz-adv-x="180" />
<glyph unicode="!" glyph-name="exclam" horiz-adv-x="306" d="M96 0V125H209V0H96ZM111 211L103 741H205L195 211H111Z" />
<glyph unicode="&quot;" glyph-name="quotedbl" horiz-adv-x="425" d="M79 439L75 741H171L166 439H79ZM260 439L254 741H351L345 439H260Z" />
<glyph unicode="#" glyph-name="numbersign" horiz-adv-x="593" d="M98 0L131 219H47V306H144L162 424H47V510H175L210 741H299L264 510H371L405 741H494L459 510H545V424H446L428 306H545V219H415L382 0H294L327 219H220L187 0H98ZM225 299H345L366 430H245L225 299Z" />
<glyph unicode="$" glyph-name="dollar" horiz-adv-x="538" d="M227 -92V0Q117 7 43 60L87 131Q151 89 231 80V353Q149 387 110 428T70 549Q70 721 227 739V825H317V740Q398 732 460 698L418 623Q372 647 312 654V414Q398 378 443 333T488 201Q488 111 448 61T317
1V-92H227ZM396 196Q396 240 376 267T312 317V82Q396 100 396 196ZM162 552Q162 488 231 451V651Q162 635 162 552Z" />
<glyph unicode="%" glyph-name="percent" horiz-adv-x="935" d="M202 276Q115 276 74 330T32 512Q32 640 73 694T202 748Q290 748 332 694T374 512Q374 385 332 331T202 276ZM156 348T203 348T269 384T289 510T270 636T203 672T137 636T117 510T136 384ZM820 -7T732
-7T603 47T562 229T603 411T732 466T861 411T903 229T862 48ZM732 65Q779 65 799 101T819 227Q819 317 799 353T732 389T666 353T646 227T666 101T732 65ZM262 0L587 741H675L349 0H262Z" />
<glyph unicode="&amp;" glyph-name="ampersand" horiz-adv-x="664" d="M258 -7Q142 -7 90 46T37 200Q37 273 73 322T178 418Q118 507 118 594Q118 754 275 754Q429 754 429 594Q429 531 395 485T302 396L363 325L460 209Q487 277 510 462L594 451Q580 340 565
268T520 139L638 0H522L467 65Q392 -7 258 -7ZM258 73Q358 73 412 130L289 277Q264 305 225 354Q180 318 155 283T130 204Q130 143 156 108T258 73ZM209 594Q209 532 256 459Q341 525 341 594Q341 632 327 652T275 672Q237 672 223 653T209 594Z" />
<glyph unicode="&apos;" glyph-name="quotesingle" horiz-adv-x="245" d="M79 439L75 741H172L166 439H79Z" />
<glyph unicode="(" glyph-name="parenleft" horiz-adv-x="399" d="M255 -173Q188 -107 138 15T87 303Q87 460 138 587T255 780L324 734Q182 570 182 304Q182 153 225 43T324 -128L255 -173Z" />
<glyph unicode=")" glyph-name="parenright" horiz-adv-x="399" d="M144 -173L76 -128Q217 40 217 304Q217 454 175 563T76 734L144 780Q212 713 262 591T312 304Q312 145 261 18T144 -173Z" />
<glyph unicode="*" glyph-name="asterisk" horiz-adv-x="481" d="M202 301L211 464L85 378L44 447L182 521L44 597L85 664L211 578L202 742H277L270 577L396 665L437 598L298 521L437 446L397 378L270 465L277 301H202Z" />
<glyph unicode="+" glyph-name="plus" horiz-adv-x="566" d="M239 124V311H83V393H239V579H327V393H483V311H327V124H239Z" />
<glyph unicode="," glyph-name="comma" horiz-adv-x="216" d="M77 -119L49 -70Q85 -50 94 -39T103 0H51V126H165V8Q165 -42 149 -67T77 -119Z" />
<glyph unicode="-" glyph-name="hyphen" horiz-adv-x="353" d="M37 271V358H315V271H37Z" />
<glyph unicode="." glyph-name="period" horiz-adv-x="216" d="M51 0V126H165V0H51Z" />
<glyph unicode="/" glyph-name="slash" horiz-adv-x="426" d="M0 0L332 741H426L94 0H0Z" />
<glyph unicode="0" glyph-name="zero" horiz-adv-x="590" d="M296 -8Q221 -8 174 14T101 86T66 202T57 370Q57 452 62 508T82 612T123 689T192 733T296 749Q370 749 417 727T489 653T523 537T532 370Q532 266 523 201T489 86T417 14T296 -8ZM296 79Q380 79 408
142T437 370Q437 532 408 595T296 658Q211 658 183 596T154 370Q154 206 182 143T296 79Z" />
<glyph unicode="1" glyph-name="one" horiz-adv-x="311" d="M131 0V655H23V741H225V0H131Z" />
<glyph unicode="2" glyph-name="two" horiz-adv-x="494" d="M34 0V76L198 279Q292 395 317 445T342 553Q342 610 318 635T233 660Q151 660 83 625L43 704Q131 749 247 749Q348 749 392 705T436 566Q436 486 405 424T266 228L150 83H445V0H34Z" />
<glyph unicode="3" glyph-name="three" horiz-adv-x="493" d="M225 -8Q114 -8 29 39L72 116Q142 78 219 78Q293 78 322 109T352 223Q352 292 326 323T214 354H126V438H219Q286 438 310 466T335 549Q335 615 309 637T221 660Q150 660 80 626L41 702Q123 749 235
749Q335 749 381 712T428 571Q428 498 410 460T350 405Q404 389 424 348T445 214Q445 92 393 42T225 -8Z" />
<glyph unicode="4" glyph-name="four" horiz-adv-x="545" d="M36 168V243L295 741H394L136 247H334L353 475H421V247H520V168H421V0H333V168H36Z" />
<glyph unicode="5" glyph-name="five" horiz-adv-x="513" d="M245 -8Q121 -8 33 40L76 117Q147 78 239 78Q315 78 347 111T379 242Q379 338 349 369T250 401Q177 401 131 362L58 383L76 741H437V655H156L146 455Q193 487 280 487Q384 487 428 435T473 244Q473
167 460 118T416 41T345 3T245 -8Z" />
<glyph unicode="6" glyph-name="six" horiz-adv-x="558" d="M292 -8Q240 -8 202 0T137 28T94 71T69 132T57 208T54 301Q54 357 55 394T59 475T69 546T87 605T115 655T156 692T211 719T282 735T374 741H431V655H369Q313 655 274 645T212 618T176 572T158 514T150
439Q196 499 320 499Q435 499 475 440T515 257Q515 118 467 55T292 -8ZM293 75Q368 75 395 118T422 256Q422 342 395 380T295 419Q228 419 190 381T151 262Q151 160 179 118T293 75Z" />
<glyph unicode="7" glyph-name="seven" horiz-adv-x="442" d="M108 0L326 655H19V741H428V667L208 0H108Z" />
<glyph unicode="8" glyph-name="eight" horiz-adv-x="561" d="M354 -8T281 -8T160 9T88 59T57 127T48 211Q48 250 51 277T64 332T95 379T150 408Q101 427 85 466T69 569Q69 608 78 638T109 694T174 735T281 749Q402 749 447 701T492 569Q492 506 476 467T411 408Q445
397 466 379T497 332T510 277T513 211Q513 162 505 127T473 59T402 9ZM201 74T281 74T389 111T418 221Q418 291 390 326T281 362T173 327T144 221Q144 149 172 112ZM281 442Q349 442 374 470T400 555T375 639T281 667Q214 667 188 639T161 555Q161 499 187 471T281
442Z" />
<glyph unicode="9" glyph-name="nine" horiz-adv-x="558" d="M125 0V83H189Q257 83 300 96T365 141T396 207T407 299Q362 239 238 239Q177 239 138 255T78 306T50 380T42 481Q42 620 90 684T267 749Q344 749 392 730T464 668T496 575T504 441Q504 391 503 356T500
281T492 214T478 158T457 109T427 70T386 39T333 18T266 4T184 0H125ZM263 319Q330 319 368 357T407 477Q407 579 379 621T265 663Q190 663 163 621T136 481Q136 396 163 358T263 319Z" />
<glyph unicode=":" glyph-name="colon" horiz-adv-x="232" d="M59 0V124H172V0H59ZM59 432V555H172V432H59Z" />
<glyph unicode=";" glyph-name="semicolon" horiz-adv-x="232" d="M59 432V555H172V432H59ZM85 -119L57 -70Q93 -50 102 -39T111 0H59V124H172V8Q172 -43 156 -67T85 -119Z" />
<glyph unicode="&lt;" glyph-name="less" horiz-adv-x="565" d="M448 106L85 312V380L448 586V495L180 347L448 198V106Z" />
<glyph unicode="=" glyph-name="equal" horiz-adv-x="567" d="M86 203V290H482V203H86ZM86 402V488H482V402H86Z" />
<glyph unicode="&gt;" glyph-name="greater" horiz-adv-x="566" d="M117 106V197L384 345L117 495V586L480 380V312L117 106Z" />
<glyph unicode="?" glyph-name="question" horiz-adv-x="518" d="M193 204Q192 290 207 327T289 432Q333 476 348 501T364 565Q364 612 340 637T252 662Q174 662 102 625L60 704Q150 749 266 749Q373 749 415 705T458 581Q458 519 437 482T368 395Q308 335 296
306T285 204H193ZM182 0V114H294V0H182Z" />
<glyph unicode="@" glyph-name="at" horiz-adv-x="843" d="M422 -165Q229 -165 141 -62T53 291T141 644T422 748T703 644T791 291Q791 145 763 89T652 33Q598 33 572 49T538 101Q501 34 381 34Q338 34 307 48T258 84T230 142T216 211T213 291Q213 338 216 372T230
442T258 499T307 536T382 550Q446 550 476 537T524 494L539 547L602 542V199Q604 133 613 113T661 93Q703 93 717 131T731 291Q731 514 658 603T422 692Q314 692 249 656T149 531T114 291T148 52T248 -73T422 -109Q544 -109 656 -63L677 -114Q560 -165 422 -165ZM404
107Q436 107 457 116T491 140T509 181T516 230T518 291Q518 390 497 431T404 472Q369 472 348 460T316 421T302 365T298 290Q298 197 318 152T404 107Z" />
<glyph unicode="A" glyph-name="A" horiz-adv-x="598" d="M20 0L248 746H350L578 0H480L434 154H160L116 0H20ZM186 242H409L298 610L186 242Z" />
<glyph unicode="B" glyph-name="B" horiz-adv-x="570" d="M65 0V741H301Q412 741 464 697T517 554Q517 422 425 389Q479 373 505 329T532 204Q532 94 475 47T307 0H65ZM161 83H306Q369 83 402 111T435 211Q435 282 402 310T306 338H161V83ZM161 425H298Q360 425
390 451T421 542Q421 606 391 631T298 656H161V425Z" />
<glyph unicode="C" glyph-name="C" horiz-adv-x="521" d="M303 -8Q223 -8 169 17T86 95T45 212T33 370T44 526T84 643T170 723T310 749Q421 749 490 702L439 622Q385 655 307 655Q206 655 169 589T131 368T168 147T308 79Q388 79 451 119L499 44Q417 -8 303 -8Z" />
<glyph unicode="D" glyph-name="D" horiz-adv-x="600" d="M65 0V741H275Q362 741 419 719T508 649T554 535T567 371Q567 271 555 205T509 91T418 22T271 0H65ZM162 85H278Q392 85 430 150T469 370Q469 523 431 587T280 652H162V85Z" />
<glyph unicode="E" glyph-name="E" horiz-adv-x="519" d="M65 0V741H472V652H160V427H456V339H160V87H475V0H65Z" />
<glyph unicode="F" glyph-name="F" horiz-adv-x="499" d="M65 0V741H473V652H162V421H456V333H162V0H65Z" />
<glyph unicode="G" glyph-name="G" horiz-adv-x="577" d="M299 -8Q148 -8 91 82T33 370Q33 577 96 663T314 749Q427 749 508 698L458 618Q392 656 310 656Q213 656 172 595T130 368Q130 204 168 140T307 75Q394 75 422 122T451 308V333H276V417H544V322Q544 130
495 61T299 -8Z" />
<glyph unicode="H" glyph-name="H" horiz-adv-x="630" d="M65 0V741H162V433H468V741H565V0H468V338H162V0H65Z" />
<glyph unicode="I" glyph-name="I" horiz-adv-x="240" d="M72 0V741H169V0H72Z" />
<glyph unicode="J" glyph-name="J" horiz-adv-x="354" d="M25 0V87H95Q151 87 173 110T196 185V741H293V179Q293 84 247 42T109 0H25Z" />
<glyph unicode="K" glyph-name="K" horiz-adv-x="585" d="M65 0V741H161V389L441 741H553L327 461L560 0H453L262 382L161 252V0H65Z" />
<glyph unicode="L" glyph-name="L" horiz-adv-x="482" d="M65 0V741H162V87H465V0H65Z" />
<glyph unicode="M" glyph-name="M" horiz-adv-x="742" d="M65 0V741H187L371 165L555 741H677V0H582V558L402 0H332L151 558V0H65Z" />
<glyph unicode="N" glyph-name="N" horiz-adv-x="627" d="M65 0V741H170L470 193V741H563V0H473L157 573V0H65Z" />
<glyph unicode="O" glyph-name="O" horiz-adv-x="628" d="M315 -8Q242 -8 190 12T108 65T61 149T38 251T33 370T38 489T60 591T107 675T189 728T315 749Q387 749 439 729T521 676T568 591T590 489T595 370T590 251T568 149T522 65T440 13T315 -8ZM266 79T315 79T398
94T451 132T481 194T495 272T498 367T495 461T481 539T451 602T397 641T315 656Q266 656 232 641T178 603T148 540T134 462T131 367Q131 311 134 273T148 195T178 132T231 94Z" />
<glyph unicode="P" glyph-name="P" horiz-adv-x="570" d="M65 0V741H317Q431 741 484 686T537 516Q537 281 315 281H161V0H65ZM161 368H313Q381 368 411 401T442 512T412 622T313 654H161V368Z" />
<glyph unicode="Q" glyph-name="Q" horiz-adv-x="628" d="M413 -170Q330 -170 289 -136T249 -27Q249 -9 250 0Q194 8 154 32T91 88T55 168T37 262T33 370Q33 439 38 489T60 591T107 675T189 728T315 749Q387 749 439 729T521 676T568 591T590 489T595 370Q595
304 591 256T571 158T528 76T455 22T343 -3V-12Q343 -54 362 -70T424 -87H487V-170H413ZM266 79T315 79T398 94T451 132T481 194T495 272T498 367T495 461T481 539T451 602T397 641T315 656Q266 656 232 641T178 603T148 540T134 462T131 367Q131 311 134 273T148
195T178 132T231 94Z" />
<glyph unicode="R" glyph-name="R" horiz-adv-x="579" d="M425 0L296 286H161V0H65V741H315Q429 741 482 687T535 520Q535 331 392 295L526 0H425ZM161 373H312Q380 373 409 405T439 515Q439 591 410 622T312 654H161V373Z" />
<glyph unicode="S" glyph-name="S" horiz-adv-x="539" d="M270 -8Q125 -8 29 52L77 127Q163 76 268 76Q409 76 409 188Q409 247 377 275T246 343Q145 385 101 429T57 556Q57 647 114 698T279 749Q389 749 476 709L435 626Q367 658 281 658Q152 658 152 559Q152
510 178 486T289 424Q353 397 387 379T452 333T493 273T504 189Q504 96 445 44T270 -8Z" />
<glyph unicode="T" glyph-name="T" horiz-adv-x="548" d="M225 0V652H17V741H531V652H322V0H225Z" />
<glyph unicode="U" glyph-name="U" horiz-adv-x="625" d="M313 -10Q173 -10 117 53T60 247V741H157V254Q157 162 190 121T314 79T438 120T472 254V741H565V247Q565 116 510 53T313 -10Z" />
<glyph unicode="V" glyph-name="V" horiz-adv-x="594" d="M246 -5L20 741H118L299 138L477 741H574L348 -5H246Z" />
<glyph unicode="W" glyph-name="W" horiz-adv-x="861" d="M203 -5L27 741H125L256 181L391 741H476L612 181L743 741H834L659 -5H565L431 545L297 -5H203Z" />
<glyph unicode="X" glyph-name="X" horiz-adv-x="584" d="M452 0L286 301L129 0H25L238 388L45 741H151L296 475L435 741H538L345 387L558 0H452Z" />
<glyph unicode="Y" glyph-name="Y" horiz-adv-x="570" d="M237 0V267L6 741H110L286 372L464 741H563L333 267V0H237Z" />
<glyph unicode="Z" glyph-name="Z" horiz-adv-x="532" d="M31 0V75L374 652H45V741H489V661L147 87H498V0H31Z" />
<glyph unicode="[" glyph-name="bracketleft" horiz-adv-x="394" d="M94 -158V769H318V688H189V-80H321V-158H94Z" />
<glyph unicode="\" glyph-name="backslash" horiz-adv-x="426" d="M332 0L0 741H94L426 0H332Z" />
<glyph unicode="]" glyph-name="bracketright" horiz-adv-x="394" d="M76 -158V-80H206V688H77V769H302V-158H76Z" />
<glyph unicode="^" glyph-name="asciicircum" horiz-adv-x="471" d="M80 596L192 758H281L392 596H314L235 692L156 596H80Z" />
<glyph unicode="_" glyph-name="underscore" horiz-adv-x="362" d="M-30 -125V-53H392V-125H-30Z" />
<glyph unicode="`" glyph-name="grave" horiz-adv-x="471" d="M219 613L84 775H191L302 613H219Z" />
<glyph unicode="a" glyph-name="a" horiz-adv-x="510" d="M198 -6Q109 -6 71 38T33 167Q33 283 100 326T318 370H341Q339 429 320 454T243 480Q166 480 106 450L67 527Q143 566 252 566Q359 566 396 522T433 370V136Q433 102 440 92T476 82V0Q468 -1 450 -1Q404
-1 383 10T355 52Q312 -6 198 -6ZM217 72Q341 72 341 215V293H319Q208 293 165 271T122 176Q122 118 145 95T217 72Z" />
<glyph unicode="b" glyph-name="b" horiz-adv-x="528" d="M56 3V769H149V502Q187 565 309 565Q357 565 391 549T445 509T476 444T490 367T493 279Q493 227 490 190T475 113T444 49T389 9T306 -7Q231 -7 198 7T140 54L126 -4L56 3ZM281 75Q353 75 376 124T399 275Q399
325 395 357T380 419T344 463T281 477Q246 477 222 467T183 440T162 396T152 342T150 275T152 209T161 155T182 111T221 85T281 75Z" />
<glyph unicode="c" glyph-name="c" horiz-adv-x="420" d="M250 -8Q185 -8 142 11T76 70T44 159T35 279Q35 335 40 376T59 455T98 515T162 551T255 565Q335 565 391 537L351 456Q309 477 259 477Q185 477 158 430T130 277Q130 171 157 123T260 74Q307 74 363 100L399
28Q327 -8 250 -8Z" />
<glyph unicode="d" glyph-name="d" horiz-adv-x="528" d="M219 -7Q171 -7 137 9T83 49T52 113T38 190T35 280Q35 331 38 369T53 446T85 509T140 549T223 565Q289 565 324 551T379 508V769H472V4L398 -3L389 58Q348 -7 219 -7ZM247 75Q282 75 307 85T346 112T367
156T377 211T379 278T377 344T368 398T346 441T308 467T247 478Q209 478 185 464T149 421T133 360T129 278Q129 239 131 212T140 156T160 112T194 86T247 75Z" />
<glyph unicode="e" glyph-name="e" horiz-adv-x="478" d="M251 -7Q184 -7 141 12T75 71T44 159T35 279Q35 348 44 397T77 485T144 545T253 565Q285 565 310 561T354 548T387 526T411 496T427 459T437 414T442 361T444 302T444 236H124Q127 151 154 113T256 74Q327
74 397 106L433 34Q356 -7 251 -7ZM251 482Q181 482 155 443T125 319H357Q356 358 355 375T349 418T333 454T302 473T251 482Z" />
<glyph unicode="f" glyph-name="f" horiz-adv-x="336" d="M18 473V555H105V617Q105 771 263 771Q317 771 327 770V688H271Q228 688 214 669T199 608V555H327V473H199V0H105V473H18Z" />
<glyph unicode="g" glyph-name="g" horiz-adv-x="497" d="M240 199Q202 199 170 205Q164 192 164 175Q164 153 181 146T247 138Q372 138 418 107T465 -2Q465 -89 411 -128T241 -167Q120 -167 69 -138T17 -32Q17 75 114 99Q82 119 82 168Q82 204 104 233Q44 275
44 380Q44 478 94 522T240 566Q253 566 285 564L460 591V516H380Q436 478 436 380Q436 283 386 241T240 199ZM240 276Q293 276 318 300T344 379T319 458T240 483Q136 483 136 379Q136 276 240 276ZM164 -93T240 -93T343 -74T370 -6Q370 34 344 49T240 64Q167 64
139 45T110 -17Q110 -61 137 -77Z" />
<glyph unicode="h" glyph-name="h" horiz-adv-x="519" d="M56 0V769H149V505Q185 565 307 565Q359 565 392 551T440 508T461 445T467 361V0H373V340Q373 415 355 445T274 476Q199 476 175 436T150 292V0H56Z" />
<glyph unicode="i" glyph-name="i" horiz-adv-x="213" d="M59 0V555H153V0H59ZM59 623V736H154V623H59Z" />
<glyph unicode="j" glyph-name="j" horiz-adv-x="213" d="M2 -158V-81H11Q42 -81 50 -68T59 -17V555H153V-20Q153 -97 125 -127T17 -158H2ZM59 623V736H154V623H59Z" />
<glyph unicode="k" glyph-name="k" horiz-adv-x="466" d="M56 0V769H148V281L340 555H441L274 320L454 0H355L212 245L148 152V0H56Z" />
<glyph unicode="l" glyph-name="l" horiz-adv-x="254" d="M219 0Q214 -1 186 -1Q114 -1 87 27T59 130V769H153V141Q153 105 163 94T219 82V0Z" />
<glyph unicode="m" glyph-name="m" horiz-adv-x="806" d="M56 0V550L131 556L139 501Q174 565 302 565Q368 565 396 549T436 499Q474 565 608 565Q650 565 679 555T725 529T750 485T761 430T763 361V0H670V340Q670 417 654 446T575 476Q502 476 479 436T456 292V0H363V340Q363
372 362 389T356 425T341 454T314 470T269 476Q195 476 172 435T148 292V0H56Z" />
<glyph unicode="n" glyph-name="n" horiz-adv-x="519" d="M56 0V550L131 556L139 501Q178 565 306 565Q358 565 391 551T440 508T461 445T467 361V0H373V340Q373 415 355 445T274 476Q198 476 174 434T150 292V0H56Z" />
<glyph unicode="o" glyph-name="o" horiz-adv-x="514" d="M257 -8Q189 -8 144 12T76 74T44 163T35 279Q35 346 43 393T75 482T143 544T257 565Q312 565 352 551T417 512T455 449T474 372T479 279Q479 210 471 163T439 74T371 13T257 -8ZM257 74Q299 74 325 88T364
133T381 194T385 276Q385 315 383 341T374 396T353 440T315 466T257 477T200 467T163 440T141 396T131 342T129 276T131 210T141 156T162 112T199 85T257 74Z" />
<glyph unicode="p" glyph-name="p" horiz-adv-x="528" d="M56 -158V550L131 556L138 500Q179 565 309 565Q357 565 391 549T445 509T476 444T490 367T493 279Q493 214 487 169T462 80T404 15T306 -7Q240 -7 205 7T150 50V-158H56ZM281 75Q352 75 375 124T399 275Q399
325 395 357T379 419T343 463T281 477Q246 477 222 467T183 440T162 396T152 342T150 275T152 209T161 155T182 111T221 85T281 75Z" />
<glyph unicode="q" glyph-name="q" horiz-adv-x="528" d="M379 -158V54Q339 -7 219 -7Q171 -7 137 9T83 49T52 113T38 190T35 280Q35 331 38 369T53 446T85 509T140 549T223 565Q297 565 333 551T389 506L403 562L472 556V-158H379ZM247 75Q282 75 307 85T346
112T367 156T377 211T379 278T377 344T368 398T346 441T308 467T247 478Q209 478 185 464T149 421T133 360T129 278Q129 239 131 212T140 156T160 112T194 86T247 75Z" />
<glyph unicode="r" glyph-name="r" horiz-adv-x="302" d="M56 0V550L130 556L139 493Q176 560 293 560V472Q245 471 215 456T171 409T154 350T150 276V0H56Z" />
<glyph unicode="s" glyph-name="s" horiz-adv-x="405" d="M200 -7Q90 -7 16 30L53 104Q117 70 200 70Q293 70 293 144Q293 180 269 200T178 250Q101 283 67 317T33 414Q33 565 210 565Q297 565 361 537L324 459Q269 483 207 483Q123 483 123 416Q123 385 145 366T231
320Q313 286 347 251T381 145Q381 69 334 31T200 -7Z" />
<glyph unicode="t" glyph-name="t" horiz-adv-x="365" d="M18 473V555H106L121 702L197 719V555H327V473H197V157Q197 116 209 99T265 82H327V0Q285 -3 255 -3Q166 -3 135 31T103 148V473H18Z" />
<glyph unicode="u" glyph-name="u" horiz-adv-x="508" d="M254 -8Q136 -8 95 41T53 206V555H147V211Q147 136 166 106T256 76Q324 76 343 106T363 211V555H455V206Q455 90 415 41T254 -8Z" />
<glyph unicode="v" glyph-name="v" horiz-adv-x="462" d="M180 -4L8 555H106L233 121L360 555H454L282 -4H180Z" />
<glyph unicode="w" glyph-name="w" horiz-adv-x="714" d="M161 -4L13 555H107L210 145L316 555H403L508 148L612 555H701L554 -4H464L357 393L252 -4H161Z" />
<glyph unicode="x" glyph-name="x" horiz-adv-x="456" d="M343 0L222 211L107 0H12L176 292L26 555H127L233 368L335 555H430L280 287L444 0H343Z" />
<glyph unicode="y" glyph-name="y" horiz-adv-x="448" d="M65 -158V-81H116Q138 -81 148 -73T165 -45L177 -2L8 555H103L225 133L347 555H439L250 -65Q233 -120 203 -139T114 -158H65Z" />
<glyph unicode="z" glyph-name="z" horiz-adv-x="410" d="M20 0V65L266 473H35V555H381V490L135 77H390V0H20Z" />
<glyph unicode="{" glyph-name="braceleft" horiz-adv-x="423" d="M275 -158Q194 -158 157 -128T120 -33Q120 -2 141 97T163 217Q163 247 142 256T62 266V345Q120 345 141 354T163 393Q163 417 142 515T120 644Q120 709 156 739T274 769H350V688H300Q258 688 238
672T217 617Q217 593 237 502T257 379Q257 323 208 306Q257 286 257 232Q257 197 237 106T217 -6Q217 -46 237 -63T300 -80H350V-158H275Z" />
<glyph unicode="|" glyph-name="bar" horiz-adv-x="282" d="M94 -158V769H189V-158H94Z" />
<glyph unicode="}" glyph-name="braceright" horiz-adv-x="423" d="M73 -158V-80H123Q166 -80 186 -63T206 -6Q206 15 186 105T166 232Q166 287 215 306Q166 324 166 379Q166 410 186 501T206 617Q206 656 186 672T123 688H73V769H150Q230 769 266 739T302 644Q302
613 281 515T260 393Q260 363 280 355T361 346V266Q303 266 282 257T260 217Q260 196 281 97T302 -33Q302 -98 266 -128T149 -158H73Z" />
<glyph unicode="~" glyph-name="asciitilde" horiz-adv-x="471" d="M124 403L62 438Q104 521 173 521Q200 521 237 501T289 480Q316 480 346 526L407 491Q366 405 297 405Q270 405 232 425T180 445Q151 445 124 403Z" />
</font>
</defs>
</svg>
