<?xml version="1.0" standalone="no"?> <!DOCTYPE svg PUBLIC "-//W3C//DTD SVG 1.0//EN" "http://www.w3.org/TR/2001/REC-SVG-20010904/DTD/svg10.dtd" > <svg xmlns="http://www.w3.org/2000/svg" width="100%" height="100%">
<defs >
<font id="antennacond-medium" horiz-adv-x="411" ><font-face
    font-family="AntennaCond Medium"
    units-per-em="1000"
    panose-1="2 0 6 6 0 0 0 2 0 4"
    ascent="800"
    descent="-200"
    alphabetic="0" />
<missing-glyph horiz-adv-x="177" />
<glyph unicode=" " glyph-name="space" horiz-adv-x="177" />
<glyph unicode="!" glyph-name="exclam" horiz-adv-x="319" d="M93 0V141H225V0H93ZM109 217L99 741H221L210 217H109Z" />
<glyph unicode="&quot;" glyph-name="quotedbl" horiz-adv-x="452" d="M78 424L73 741H188L183 424H78ZM270 424L264 741H380L373 424H270Z" />
<glyph unicode="#" glyph-name="numbersign" horiz-adv-x="610" d="M95 0L126 207H45V310H142L157 415H45V517H173L206 741H313L279 517H376L409 741H515L481 517H564V415H466L450 310H564V207H434L403 0H298L329 207H232L201 0H95ZM238 302H351L370 422H256L238 302Z" />
<glyph unicode="$" glyph-name="dollar" horiz-adv-x="546" d="M223 -92V0Q113 8 35 63L88 147Q169 93 270 93Q336 93 363 120T391 200Q391 249 362 275T263 329Q229 342 217 347T176 365T137 388T108 413T83 447T69 488T63 542Q63 717 222 738V823H330V739Q411
729 474 696L423 606Q361 640 278 640Q220 640 197 616T173 545Q173 503 200 479T294 430Q336 414 358 405T412 376T460 336T488 282T501 207Q501 115 461 65T330 2V-92H223Z" />
<glyph unicode="%" glyph-name="percent" horiz-adv-x="977" d="M210 270Q118 270 74 325T30 509T74 693T210 748Q303 748 347 693T392 509T348 325T210 270ZM167 355T211 355T273 388T291 506T273 624T211 658T149 625T131 506T149 388ZM859 -7T766 -7T630 48T586
232T630 416T766 472Q859 472 903 417T947 232T903 48ZM766 78Q810 78 829 111T848 229Q848 314 829 347T766 381Q723 381 705 348T686 229Q686 145 704 112T766 78ZM272 0L602 741H707L376 0H272Z" />
<glyph unicode="&amp;" glyph-name="ampersand" horiz-adv-x="684" d="M267 -7Q146 -7 90 45T33 201Q33 276 70 325T175 417Q118 503 118 586Q118 754 287 754Q451 754 451 586Q451 523 417 477T324 390L379 326L469 221Q494 283 517 462L616 450Q589 231 541
139L661 0H522L474 55Q400 -7 267 -7ZM267 88Q356 88 409 132L291 270L231 341Q145 275 145 206Q145 151 169 120T267 88ZM226 586Q226 530 268 464Q348 521 348 586Q348 621 335 639T287 657T240 640T226 586Z" />
<glyph unicode="&apos;" glyph-name="quotesingle" horiz-adv-x="261" d="M78 424L73 741H189L183 424H78Z" />
<glyph unicode="(" glyph-name="parenleft" horiz-adv-x="414" d="M254 -175Q186 -107 136 15T85 303Q85 459 136 587T254 782L337 729Q199 563 199 304Q199 155 240 48T337 -122L254 -175Z" />
<glyph unicode=")" glyph-name="parenright" horiz-adv-x="414" d="M160 -175L78 -122Q215 48 215 304Q215 453 174 560T78 729L160 782Q229 714 279 592T329 304Q329 147 278 19T160 -175Z" />
<glyph unicode="*" glyph-name="asterisk" horiz-adv-x="497" d="M202 285L213 445L92 358L43 440L180 513L43 588L91 668L213 581L202 742H292L283 579L405 669L454 589L316 513L454 439L406 359L283 446L292 285H202Z" />
<glyph unicode="+" glyph-name="plus" horiz-adv-x="580" d="M237 118V303H82V401H237V585H343V401H498V303H343V118H237Z" />
<glyph unicode="," glyph-name="comma" horiz-adv-x="230" d="M81 -130L49 -72Q89 -51 99 -39T109 0H49V143H181V10Q181 -45 163 -72T81 -130Z" />
<glyph unicode="-" glyph-name="hyphen" horiz-adv-x="351" d="M35 269V372H315V269H35Z" />
<glyph unicode="." glyph-name="period" horiz-adv-x="230" d="M49 0V143H181V0H49Z" />
<glyph unicode="/" glyph-name="slash" horiz-adv-x="448" d="M0 0L335 741H448L113 0H0Z" />
<glyph unicode="0" glyph-name="zero" horiz-adv-x="606" d="M304 -8Q240 -8 196 8T124 52T81 130T61 234T55 370Q55 450 60 505T80 609T123 687T195 732T304 749Q382 749 432 726T507 650T542 534T551 370Q551 288 546 233T526 128T483 52T412 8T304 -8ZM224
96T304 96T410 155T437 370Q437 523 410 582T304 641Q223 641 197 583T170 370Q170 215 197 156Z" />
<glyph unicode="1" glyph-name="one" horiz-adv-x="326" d="M129 0V638H23V741H241V0H129Z" />
<glyph unicode="2" glyph-name="two" horiz-adv-x="509" d="M31 0V90L202 292Q291 397 314 443T338 545Q338 597 315 620T233 643Q155 643 85 608L36 702Q128 749 251 749Q357 749 404 703T451 561Q451 478 421 419T282 231L171 99H461V0H31Z" />
<glyph unicode="3" glyph-name="three" horiz-adv-x="509" d="M233 -8Q113 -8 26 41L77 133Q152 94 226 94Q297 94 324 122T352 227Q352 290 327 317T221 345H128V444H225Q288 444 311 468T335 543Q335 602 311 622T227 643Q155 643 84 609L37 700Q123 749 244
749Q349 749 397 712T446 571Q446 498 429 460T372 405Q425 389 444 349T464 216Q464 93 409 43T233 -8Z" />
<glyph unicode="4" glyph-name="four" horiz-adv-x="560" d="M33 161V249L292 741H410L153 255H336L359 476H440V255H536V161H440V0H335V161H33Z" />
<glyph unicode="5" glyph-name="five" horiz-adv-x="530" d="M254 -8Q121 -8 29 42L80 134Q155 94 247 94Q319 94 349 124T379 244Q379 331 351 360T258 389Q188 389 143 354L56 379L75 741H456V638H170L161 460Q208 491 296 491Q401 491 446 438T492 246Q492
168 478 118T431 40T358 3T254 -8Z" />
<glyph unicode="6" glyph-name="six" horiz-adv-x="575" d="M300 -8Q235 -8 190 6T117 44T76 110T57 196T52 307Q52 369 53 410T60 497T74 572T100 632T141 681T199 714T277 735T380 741H447V638H374Q309 638 268 626T206 585T177 527T166 447Q210 503 336 503Q397
503 437 486T498 435T527 359T535 257Q535 118 484 55T300 -8ZM302 91Q372 91 397 130T423 256Q423 336 397 371T304 407Q168 407 168 262Q168 168 195 130T302 91Z" />
<glyph unicode="7" glyph-name="seven" horiz-adv-x="461" d="M107 0L323 638H19V741H445V652L227 0H107Z" />
<glyph unicode="8" glyph-name="eight" horiz-adv-x="577" d="M366 -8T289 -8T162 9T87 59T55 127T46 211Q46 251 49 277T61 331T91 378T145 408Q97 428 82 466T67 569Q67 608 76 638T109 694T177 735T289 749Q356 749 401 735T469 694T501 638T510 569Q510 506
494 467T431 408Q465 397 486 378T517 331T529 277T532 211Q532 162 524 128T491 60T417 9ZM214 90T289 90T391 123T418 224Q418 289 391 321T289 354Q213 354 187 322T160 224Q160 157 187 124ZM226 447T289 447T376 472T400 550Q400 601 376 626T289 651T202
626T177 550T201 473Z" />
<glyph unicode="9" glyph-name="nine" horiz-adv-x="575" d="M127 0V99H201Q265 99 306 111T368 151T397 210T408 291Q366 235 239 235Q178 235 138 252T77 303T48 379T40 481Q40 620 91 684T275 749Q340 749 385 735T458 697T500 631T519 545T524 434Q524 373
523 331T516 243T500 168T474 108T433 60T375 27T297 6T195 0H127ZM271 330Q407 330 407 477Q407 570 380 608T273 647Q203 647 178 608T152 481Q152 401 178 366T271 330Z" />
<glyph unicode=":" glyph-name="colon" horiz-adv-x="246" d="M57 0V140H188V0H57ZM57 419V559H188V419H57Z" />
<glyph unicode=";" glyph-name="semicolon" horiz-adv-x="246" d="M57 419V559H188V419H57ZM89 -130L57 -72Q97 -51 107 -39T117 0H57V140H188V10Q188 -45 170 -72T89 -130Z" />
<glyph unicode="&lt;" glyph-name="less" horiz-adv-x="579" d="M459 97L87 306V386L459 595V487L202 347L459 206V97Z" />
<glyph unicode="=" glyph-name="equal" horiz-adv-x="580" d="M84 191V295H497V191H84ZM84 400V503H497V400H84Z" />
<glyph unicode="&gt;" glyph-name="greater" horiz-adv-x="580" d="M119 97V205L376 345L119 487V595L492 386V306L119 97Z" />
<glyph unicode="?" glyph-name="question" horiz-adv-x="535" d="M193 208Q192 294 208 332T291 433Q335 475 350 498T366 557Q366 600 343 622T258 645Q180 645 108 608L58 703Q154 749 275 749Q388 749 433 705T478 578Q478 512 457 475T385 390Q326 334 314
307T303 208H193ZM182 0V128H313V0H182Z" />
<glyph unicode="@" glyph-name="at" horiz-adv-x="849" d="M425 -165Q225 -165 137 -60T48 291T136 642T425 748Q624 748 712 643T801 291Q801 146 772 90T656 33Q552 33 537 99Q501 34 378 34Q334 34 303 48T254 84T226 142T212 211T209 291Q209 338 212 372T226
442T255 499T305 536T380 550Q443 550 473 538T520 498L538 547L612 540V200Q614 139 622 120T667 101Q706 101 719 137T732 291Q732 507 660 595T425 684Q261 684 190 596T118 291T189 -13T425 -101Q542 -101 658 -55L683 -114Q560 -165 425 -165ZM407 120Q436
120 456 128T487 150T503 187T510 233T512 291Q512 383 493 420T407 457Q347 457 329 417T310 290Q310 202 328 161T407 120Z" />
<glyph unicode="A" glyph-name="A" horiz-adv-x="617" d="M18 0L247 746H370L599 0H480L438 141H174L133 0H18ZM203 246H409L307 586L203 246Z" />
<glyph unicode="B" glyph-name="B" horiz-adv-x="585" d="M63 0V741H310Q425 741 479 696T533 553Q533 422 441 389Q495 372 521 329T548 205Q548 96 489 48T316 0H63ZM177 99H314Q372 99 401 124T431 213Q431 277 402 302T314 328H177V99ZM177 431H306Q363 431
390 455T417 537Q417 594 390 617T306 640H177V431Z" />
<glyph unicode="C" glyph-name="C" horiz-adv-x="535" d="M310 -8Q228 -8 173 17T87 95T44 212T31 370Q31 443 38 497T64 601T114 681T197 731T318 749Q432 749 505 700L443 604Q393 636 315 636Q221 636 185 575T148 368Q148 220 184 158T316 96Q394 96 455 135L512
46Q429 -8 310 -8Z" />
<glyph unicode="D" glyph-name="D" horiz-adv-x="613" d="M63 0V741H279Q450 741 516 656T582 371Q582 167 517 84T277 0H63ZM179 101H286Q390 101 427 161T465 370Q465 518 428 576T286 635H179V101Z" />
<glyph unicode="E" glyph-name="E" horiz-adv-x="531" d="M63 0V741H486V635H176V435H471V329H176V104H488V0H63Z" />
<glyph unicode="F" glyph-name="F" horiz-adv-x="513" d="M63 0V741H487V635H179V426H471V321H179V0H63Z" />
<glyph unicode="G" glyph-name="G" horiz-adv-x="590" d="M304 -8Q150 -8 91 83T31 370Q31 575 96 662T323 749Q442 749 524 696L463 601Q399 638 318 638Q257 638 222 617T167 535T147 368Q147 211 183 151T314 91Q395 91 421 134T448 301V324H283V425H559V320Q559
131 508 62T304 -8Z" />
<glyph unicode="H" glyph-name="H" horiz-adv-x="645" d="M81 0V741H197V441H484V741H600V0H484V327H197V0H81Z" />
<glyph unicode="I" glyph-name="I" horiz-adv-x="256" d="M70 0V741H186V0H70Z" />
<glyph unicode="J" glyph-name="J" horiz-adv-x="366" d="M25 0V104H95Q148 104 169 125T191 194V741H307V187Q307 86 258 43T113 0H25Z" />
<glyph unicode="K" glyph-name="K" horiz-adv-x="602" d="M63 0V741H178V404L441 741H574L349 458L580 0H452L271 363L178 240V0H63Z" />
<glyph unicode="L" glyph-name="L" horiz-adv-x="492" d="M63 0V741H179V104H477V0H63Z" />
<glyph unicode="M" glyph-name="M" horiz-adv-x="762" d="M63 0V741H210L381 199L553 741H700V0H586V525L418 0H335L166 526V0H63Z" />
<glyph unicode="N" glyph-name="N" horiz-adv-x="642" d="M63 0V741H187L469 232V741H580V0H473L173 537V0H63Z" />
<glyph unicode="O" glyph-name="O" horiz-adv-x="641" d="M395 -8T321 -8T193 12T109 65T60 149T37 251T31 370T36 488T60 591T108 675T193 728T321 749T448 729T532 676T581 591T604 489T610 370T605 252T581 150T533 66T449 13ZM321 95Q366 95 398 109T448 144T477
203T490 277T493 367T490 456T477 529T449 588T398 624T321 638Q275 638 243 624T193 589T164 530T151 456T148 367T151 278T164 204T192 145T243 109T321 95Z" />
<glyph unicode="P" glyph-name="P" horiz-adv-x="584" d="M63 0V741H325Q444 741 498 684T553 511Q553 268 323 268H177V0H63ZM177 372H321Q383 372 411 402T440 505T412 607T321 637H177V372Z" />
<glyph unicode="Q" glyph-name="Q" horiz-adv-x="641" d="M420 -174Q331 -174 287 -139T244 -26Q244 -23 244 -17T244 -7T244 2Q190 11 151 35T89 92T53 172T36 264T31 370Q31 438 36 488T60 591T108 675T193 728T321 749T448 729T532 676T581 591T604 489T610
370Q610 306 605 258T585 161T542 79T468 25T357 -2V-6Q357 -45 374 -60T433 -76H500V-174H420ZM321 95Q366 95 398 109T448 144T477 203T490 277T493 367T490 456T477 529T449 588T398 624T321 638Q275 638 243 624T193 589T164 530T151 456T148 367T151 278T164
204T192 145T243 109T321 95Z" />
<glyph unicode="R" glyph-name="R" horiz-adv-x="594" d="M422 0L301 273H177V0H63V741H323Q442 741 496 685T551 515Q551 330 415 286L543 0H422ZM177 377H320Q382 377 409 407T437 508Q437 578 410 607T320 637H177V377Z" />
<glyph unicode="S" glyph-name="S" horiz-adv-x="553" d="M278 -8Q120 -8 24 54L82 143Q166 92 275 92Q407 92 407 192Q407 247 376 272T246 334Q144 373 99 419T53 548Q53 644 113 696T287 749Q406 749 493 707L443 608Q375 641 289 641Q167 641 167 552Q167
507 192 485T298 431Q428 380 474 336T520 194Q520 98 459 45T278 -8Z" />
<glyph unicode="T" glyph-name="T" horiz-adv-x="558" d="M220 0V635H15V741H543V635H337V0H220Z" />
<glyph unicode="U" glyph-name="U" horiz-adv-x="639" d="M320 -10Q176 -10 117 54T58 251V741H174V261Q174 173 205 134T321 95T437 133T469 261V741H581V251Q581 118 523 54T320 -10Z" />
<glyph unicode="V" glyph-name="V" horiz-adv-x="611" d="M244 -5L18 741H136L308 165L477 741H594L367 -5H244Z" />
<glyph unicode="W" glyph-name="W" horiz-adv-x="873" d="M198 -5L25 741H143L263 215L389 741H491L618 215L738 741H848L676 -5H562L437 507L312 -5H198Z" />
<glyph unicode="X" glyph-name="X" horiz-adv-x="605" d="M454 0L296 285L147 0H22L238 389L43 741H170L307 493L436 741H561L365 388L581 0H454Z" />
<glyph unicode="Y" glyph-name="Y" horiz-adv-x="588" d="M236 0V262L4 741H127L295 387L464 741H583L351 262V0H236Z" />
<glyph unicode="Z" glyph-name="Z" horiz-adv-x="542" d="M29 0V89L364 635H43V741H502V645L168 104H511V0H29Z" />
<glyph unicode="[" glyph-name="bracketleft" horiz-adv-x="410" d="M92 -158V769H336V672H206V-65H339V-158H92Z" />
<glyph unicode="\" glyph-name="backslash" horiz-adv-x="448" d="M335 0L0 741H113L448 0H335Z" />
<glyph unicode="]" glyph-name="bracketright" horiz-adv-x="410" d="M74 -158V-65H205V672H75V769H319V-158H74Z" />
<glyph unicode="^" glyph-name="asciicircum" horiz-adv-x="476" d="M75 587L186 756H291L402 587H310L237 678L164 587H75Z" />
<glyph unicode="_" glyph-name="underscore" horiz-adv-x="366" d="M-30 -133V-48H396V-133H-30Z" />
<glyph unicode="`" glyph-name="grave" horiz-adv-x="476" d="M214 615L76 784H202L312 615H214Z" />
<glyph unicode="a" glyph-name="a" horiz-adv-x="521" d="M199 -6Q105 -6 68 38T30 168Q30 284 97 328T317 373H339Q337 424 319 446T248 468Q169 468 109 438L63 529Q140 570 260 570Q369 570 408 526T448 375V149Q448 117 455 108T490 98V0Q479 -1 458 -1Q411
-1 388 9T356 49Q313 -6 199 -6ZM223 87Q277 87 308 115T339 215V283H318Q215 283 176 264T137 180Q137 128 157 108T223 87Z" />
<glyph unicode="b" glyph-name="b" horiz-adv-x="541" d="M54 3V769H165V510Q204 569 323 569Q371 569 406 553T460 512T491 447T505 370T509 281Q509 215 503 169T477 80T419 15T319 -7Q245 -7 212 6T153 50L136 -4L54 3ZM287 91Q353 91 374 135T396 276Q396
373 375 418T287 464Q255 464 233 455T197 431T177 390T168 339T166 276T168 214T177 163T196 123T231 100T287 91Z" />
<glyph unicode="c" glyph-name="c" horiz-adv-x="429" d="M254 -8Q188 -8 144 11T75 70T42 160T32 281Q32 427 80 498T261 569Q344 569 404 540L355 443Q316 464 266 464Q197 464 172 421T146 278Q146 178 171 134T268 90Q314 90 368 115L411 29Q334 -8 254 -8Z" />
<glyph unicode="d" glyph-name="d" horiz-adv-x="541" d="M218 -7Q170 -7 136 9T82 49T51 114T36 192T33 282Q33 348 39 393T65 482T123 547T223 569Q286 569 320 557T376 517V769H488V4L398 -3L389 54Q346 -7 218 -7ZM254 91Q286 91 309 100T345 124T365 165T374
216T376 280Q376 376 353 420T254 465Q188 465 167 420T145 280Q145 182 166 137T254 91Z" />
<glyph unicode="e" glyph-name="e" horiz-adv-x="490" d="M256 -7Q187 -7 142 12T74 71T41 160T32 281Q32 351 42 400T77 490T147 549T259 569Q301 569 332 562T385 539T421 503T442 453T453 390T457 315T457 227H140Q144 153 169 121T262 89Q337 89 405 122L448
36Q369 -7 256 -7ZM256 470Q192 470 168 435T140 325H354Q354 358 353 375T346 414T331 446T303 463T256 470Z" />
<glyph unicode="f" glyph-name="f" horiz-adv-x="353" d="M16 461V559H105V610Q105 770 276 770Q333 770 345 769V672H286Q245 672 231 655T217 598V559H345V461H217V0H105V461H16Z" />
<glyph unicode="g" glyph-name="g" horiz-adv-x="513" d="M248 199Q205 199 179 204Q175 193 175 179Q175 159 192 152T256 144Q388 144 435 114T483 2Q483 -88 427 -127T249 -167Q122 -167 69 -138T15 -32Q15 73 112 98Q80 120 80 170Q80 205 101 235Q42 278
42 381Q42 480 94 525T248 570Q259 570 287 568L478 601V513H398Q454 475 454 381Q454 283 401 241T248 199ZM248 -82Q321 -82 345 -65T370 -4Q370 32 346 45T248 59Q180 59 153 42T126 -13Q126 -53 151 -67T248 -82ZM248 288Q298 288 321 310T344 380T321 450T248
472Q199 472 176 450T152 380T175 310T248 288Z" />
<glyph unicode="h" glyph-name="h" horiz-adv-x="533" d="M54 0V769H165V513Q202 569 321 569Q372 569 405 555T455 511T477 448T483 364V0H371V338Q371 406 354 434T280 462Q211 462 189 426T166 298V0H54Z" />
<glyph unicode="i" glyph-name="i" horiz-adv-x="227" d="M57 0V559H169V0H57ZM57 621V742H170V621H57Z" />
<glyph unicode="j" glyph-name="j" horiz-adv-x="227" d="M2 -158V-67H11Q40 -67 48 -54T57 -4V559H169V-8Q169 -93 138 -125T19 -158H2ZM57 621V742H170V621H57Z" />
<glyph unicode="k" glyph-name="k" horiz-adv-x="484" d="M54 0V769H163V300L342 559H463L295 323L475 0H356L222 233L163 147V0H54Z" />
<glyph unicode="l" glyph-name="l" horiz-adv-x="267" d="M233 0Q227 -1 193 -1Q117 -1 87 29T57 140V769H169V154Q169 119 179 109T233 98V0Z" />
<glyph unicode="m" glyph-name="m" horiz-adv-x="822" d="M54 0V552L143 560L152 509Q190 569 316 569Q383 569 411 554T450 507Q491 569 623 569Q675 569 707 555T755 511T775 448T780 364V0H668V338Q668 408 654 435T582 462Q515 462 494 426T472 298V0H361V338Q361
408 347 435T275 462Q207 462 186 426T164 298V0H54Z" />
<glyph unicode="n" glyph-name="n" horiz-adv-x="533" d="M54 0V552L143 560L152 509Q194 569 321 569Q372 569 405 555T455 511T477 448T483 364V0H371V338Q371 406 354 434T280 462Q210 462 188 425T166 298V0H54Z" />
<glyph unicode="o" glyph-name="o" horiz-adv-x="526" d="M263 -8Q194 -8 147 12T76 73T42 163T32 281Q32 349 41 397T75 487T146 548T263 569T380 549T451 487T484 397T494 281Q494 211 485 163T451 73T380 12T263 -8ZM263 90Q294 90 316 99T350 124T370 164T379
215T381 277Q381 324 378 353T363 410T327 451T263 464Q225 464 201 451T164 411T149 354T145 277Q145 231 148 201T164 144T200 103T263 90Z" />
<glyph unicode="p" glyph-name="p" horiz-adv-x="541" d="M54 -158V552L143 560L151 508Q194 569 323 569Q371 569 406 553T460 512T491 447T505 370T509 281T506 191T490 114T458 49T402 9T319 -7Q256 -7 222 6T166 45V-158H54ZM287 91Q332 91 357 115T389 176T396
276Q396 313 394 339T386 390T367 431T335 455T287 464Q255 464 233 455T197 431T177 390T168 339T166 276T168 214T177 163T196 123T231 100T287 91Z" />
<glyph unicode="q" glyph-name="q" horiz-adv-x="541" d="M376 -158V50Q336 -7 218 -7Q170 -7 136 9T82 49T51 114T36 192T33 282Q33 348 39 393T65 482T123 547T223 569Q297 569 332 556T389 514L405 565L488 558V-158H376ZM254 91Q286 91 309 100T345 124T365
165T374 216T376 280Q376 376 353 420T254 465Q188 465 167 420T145 280Q145 182 166 137T254 91Z" />
<glyph unicode="r" glyph-name="r" horiz-adv-x="316" d="M54 0V552L142 560L152 501Q192 564 308 564V458Q269 457 242 447T200 422T178 381T168 334T166 278V0H54Z" />
<glyph unicode="s" glyph-name="s" horiz-adv-x="421" d="M210 -7Q90 -7 14 32L57 119Q125 85 210 85Q293 85 293 149Q293 181 271 199T180 244Q101 275 67 310T32 410Q32 569 220 569Q312 569 379 540L335 447Q278 471 216 471Q174 471 157 457T139 413Q139 385
160 368T244 327Q328 294 363 259T398 150Q398 -7 210 -7Z" />
<glyph unicode="t" glyph-name="t" horiz-adv-x="381" d="M16 461V559H107L124 700L214 719V559H344V461H214V168Q214 130 226 114T281 98H344V0Q290 -3 268 -3Q171 -3 137 33T103 156V461H16Z" />
<glyph unicode="u" glyph-name="u" horiz-adv-x="522" d="M261 -8Q138 -8 94 43T50 214V559H163V220Q163 148 180 120T263 92Q326 92 344 120T362 221V559H472V214Q472 93 430 43T261 -8Z" />
<glyph unicode="v" glyph-name="v" horiz-adv-x="480" d="M180 -4L6 559H123L243 144L362 559H474L299 -4H180Z" />
<glyph unicode="w" glyph-name="w" horiz-adv-x="729" d="M158 -4L12 559H125L217 174L316 559H419L517 178L610 559H717L572 -4H465L365 370L266 -4H158Z" />
<glyph unicode="x" glyph-name="x" horiz-adv-x="472" d="M343 0L229 198L123 0H9L174 294L23 559H144L242 386L335 559H449L298 289L463 0H343Z" />
<glyph unicode="y" glyph-name="y" horiz-adv-x="464" d="M66 -158V-67H121Q142 -67 152 -60T167 -35L177 -1L6 559H120L234 159L347 559H457L269 -58Q251 -117 218 -137T120 -158H66Z" />
<glyph unicode="z" glyph-name="z" horiz-adv-x="422" d="M18 0V76L257 461H32V559H396V482L156 92H405V0H18Z" />
<glyph unicode="{" glyph-name="braceleft" horiz-adv-x="439" d="M283 -158Q197 -158 159 -127T120 -30Q120 0 141 96T162 211Q162 241 141 249T60 258V353Q120 353 141 361T162 399Q162 422 141 516T120 640Q120 707 158 738T282 769H369V672H315Q275 672 256
658T236 606Q236 583 255 498T274 381Q274 323 223 306Q274 287 274 230Q274 195 255 109T236 4Q236 -33 255 -49T315 -65H369V-158H283Z" />
<glyph unicode="|" glyph-name="bar" horiz-adv-x="297" d="M92 -158V769H206V-158H92Z" />
<glyph unicode="}" glyph-name="braceright" horiz-adv-x="439" d="M71 -158V-65H125Q165 -65 184 -49T204 4Q204 23 185 109T165 230Q165 288 216 306Q165 324 165 381Q165 411 184 497T204 606Q204 643 185 657T125 672H71V769H158Q243 769 281 738T319 640Q319
610 298 516T277 399Q277 370 297 362T380 354V258Q319 258 298 250T277 211Q277 192 298 96T319 -30Q319 -96 281 -127T157 -158H71Z" />
<glyph unicode="~" glyph-name="asciitilde" horiz-adv-x="476" d="M125 389L52 430Q98 522 174 522Q202 522 239 501T291 480Q318 480 350 527L422 485Q375 391 301 391Q272 391 234 411T183 432Q154 432 125 389Z" />
</font>
</defs>
</svg>
