<?xml version="1.0" standalone="no"?> <!DOCTYPE svg PUBLIC "-//W3C//DTD SVG 1.0//EN" "http://www.w3.org/TR/2001/REC-SVG-20010904/DTD/svg10.dtd" > <svg xmlns="http://www.w3.org/2000/svg" width="100%" height="100%">
<defs >
<font id="antennacond-bold" horiz-adv-x="434" ><font-face
    font-family="AntennaCond Bold"
    units-per-em="1000"
    panose-1="2 0 5 3 0 0 0 2 0 4"
    ascent="800"
    descent="-200"
    alphabetic="0" />
<missing-glyph horiz-adv-x="170" />
<glyph unicode=" " glyph-name="space" horiz-adv-x="170" />
<glyph unicode="!" glyph-name="exclam" horiz-adv-x="345" d="M86 0V176H258V0H86ZM104 231L91 741H255L241 231H104Z" />
<glyph unicode="&quot;" glyph-name="quotedbl" horiz-adv-x="510" d="M76 392L69 741H225L218 392H76ZM293 392L285 741H441L433 392H293Z" />
<glyph unicode="#" glyph-name="numbersign" horiz-adv-x="647" d="M88 0L115 181H41V319H136L147 395H41V532H168L199 741H342L311 532H386L417 741H560L528 532H605V395H508L496 319H605V181H475L448 0H306L333 181H258L231 0H88ZM265 308H364L379 406H280L265 308Z" />
<glyph unicode="$" glyph-name="dollar" horiz-adv-x="563" d="M214 -93V0Q99 11 19 69L90 182Q174 124 277 124Q337 124 359 144T381 208Q381 247 357 267T270 309Q167 343 134 362Q50 413 49 527Q49 622 89 673T213 738V819H358V738Q441 725 503 691L434 570Q368
605 285 605Q237 605 217 587T197 532Q197 498 221 480T309 442Q345 431 364 425T413 405T460 376T495 339T521 287T529 219Q529 122 490 70T358 3V-93H214Z" />
<glyph unicode="%" glyph-name="percent" horiz-adv-x="1067" d="M227 258Q125 258 76 314T26 503T75 691T227 748Q330 748 380 692T430 503T380 315T227 258ZM190 370T228 370T281 397T296 499Q296 572 281 600T228 628T175 600T160 499Q160 425 175 398ZM838
-7Q736 -7 687 49T637 239Q637 370 686 427T838 484Q941 484 991 427T1041 239Q1041 106 991 50T838 -7ZM801 105T839 105T892 133T908 234Q908 308 893 335T839 363T786 336T771 234Q771 161 786 133ZM294 0L635 741H775L433 0H294Z" />
<glyph unicode="&amp;" glyph-name="ampersand" horiz-adv-x="727" d="M286 -8Q154 -8 90 42T26 204Q26 281 62 328T167 413Q117 492 117 570Q117 664 168 710T312 756Q500 756 500 570Q500 455 371 375Q385 359 413 329L491 243Q516 307 535 463L662 448Q639
234 585 138L711 0H524L490 38Q412 -8 286 -8ZM286 116Q356 116 400 138L295 255Q293 257 243 313Q176 264 176 211Q176 190 179 176T193 146T227 124T286 116ZM263 570Q263 522 295 472Q362 517 362 570Q362 626 312 626Q285 626 274 613T263 570Z" />
<glyph unicode="&apos;" glyph-name="quotesingle" horiz-adv-x="294" d="M76 392L69 741H226L219 392H76Z" />
<glyph unicode="(" glyph-name="parenleft" horiz-adv-x="446" d="M252 -178Q182 -109 132 13T81 304Q81 459 133 589T252 787L364 718Q306 639 271 545T235 305Q235 51 364 -110L252 -178Z" />
<glyph unicode=")" glyph-name="parenright" horiz-adv-x="446" d="M194 -178L83 -110Q120 -59 144 -14T189 116T211 304Q211 557 83 718L194 787Q264 718 314 596T365 305Q365 149 313 18T194 -178Z" />
<glyph unicode="*" glyph-name="asterisk" horiz-adv-x="531" d="M204 250L218 404L106 316L40 425L174 496L40 568L105 676L218 587L204 742H324L311 585L425 676L490 569L355 496L490 424L426 317L311 406L324 250H204Z" />
<glyph unicode="+" glyph-name="plus" horiz-adv-x="609" d="M233 105V287H79V418H233V598H376V418H530V287H376V105H233Z" />
<glyph unicode="," glyph-name="comma" horiz-adv-x="260" d="M89 -153L47 -77Q97 -51 108 -39T120 0H44V179H216V15Q216 -50 193 -82T89 -153Z" />
<glyph unicode="-" glyph-name="hyphen" horiz-adv-x="347" d="M30 264V402H316V264H30Z" />
<glyph unicode="." glyph-name="period" horiz-adv-x="260" d="M44 0V179H216V0H44Z" />
<glyph unicode="/" glyph-name="slash" horiz-adv-x="495" d="M0 0L342 741H495L153 0H0Z" />
<glyph unicode="0" glyph-name="zero" horiz-adv-x="641" d="M322 -9Q251 -9 202 8T123 55T77 134T55 238T49 370T54 500T75 604T121 684T201 732T322 750T442 732T521 684T566 603T587 499T592 370Q592 304 589 258T575 165T547 90T499 36T425 2T322 -9ZM322
131Q392 131 414 183T437 370Q437 503 415 553T322 604Q251 604 228 554T205 370Q205 236 228 184T322 131Z" />
<glyph unicode="1" glyph-name="one" horiz-adv-x="357" d="M125 0V603H23V741H276V0H125Z" />
<glyph unicode="2" glyph-name="two" horiz-adv-x="540" d="M24 0V120L210 320Q289 404 309 441T330 527Q330 569 309 587T235 606Q160 606 88 571L23 698Q127 750 261 750Q378 750 430 701T482 550Q482 464 452 407T317 237L220 132H494V0H24Z" />
<glyph unicode="3" glyph-name="three" horiz-adv-x="544" d="M250 -9Q117 -9 19 46L87 171Q165 129 240 129Q306 129 329 151T353 235Q353 287 330 307T236 327H131V452H238Q295 452 315 470T335 531Q335 575 314 590T239 606Q164 606 93 572L29 695Q125 750
263 750Q377 750 430 712T484 571Q484 498 468 460T412 406Q465 389 484 349T504 219Q504 94 443 43T250 -9Z" />
<glyph unicode="4" glyph-name="four" horiz-adv-x="591" d="M27 146V263L286 741H444L189 271H341L371 478H480V271H570V146H480V0H339V146H27Z" />
<glyph unicode="5" glyph-name="five" horiz-adv-x="566" d="M274 -9Q122 -9 21 47L89 171Q166 129 264 129Q327 129 353 152T380 247Q380 317 355 340T274 363Q211 363 169 337L52 371L72 741H496V603H201L194 471Q237 496 330 496Q438 496 485 443T532 250Q532
170 516 119T465 40T385 2T274 -9Z" />
<glyph unicode="6" glyph-name="six" horiz-adv-x="612" d="M318 -9Q246 -9 196 6T117 47T72 117T51 206T46 320Q46 387 48 432T59 526T82 604T123 663T185 707T273 732T393 741H480V603H385Q328 603 292 594T237 564T211 519T200 456Q243 507 370 507Q433 507
475 490T538 437T568 359T577 257Q577 118 520 55T318 -9ZM321 124Q380 124 402 155T425 256Q425 324 402 353T323 383Q204 383 204 261Q204 186 227 155T321 124Z" />
<glyph unicode="7" glyph-name="seven" horiz-adv-x="501" d="M105 0L317 603H18V741H482V622L267 0H105Z" />
<glyph unicode="8" glyph-name="eight" horiz-adv-x="611" d="M305 -9Q237 -9 188 3T111 35T67 85T46 144T41 212Q41 250 44 276T56 329T86 376T139 408Q93 429 78 468T62 568Q62 607 72 637T107 694T182 735T305 750T428 736T503 694T538 637T548 568Q548 508
532 468T470 408Q504 396 525 377T556 329T568 276T571 212T567 145T546 86T501 36T424 4T305 -9ZM241 120T305 120T393 148T417 233T394 316T305 344Q241 344 218 317T195 233T218 149ZM305 453Q358 453 379 473T400 537T379 600T305 621Q253 621 232 601T210
537T231 474T305 453Z" />
<glyph unicode="9" glyph-name="nine" horiz-adv-x="612" d="M131 0V132H227Q332 132 369 166T411 281Q371 230 242 230Q179 230 137 247T74 300T44 377T35 479Q35 619 92 684T293 750Q365 750 415 735T494 694T540 624T561 535T566 421Q566 354 563 308T552 214T528
135T487 77T424 34T336 9T218 0H131ZM288 353Q408 353 408 476Q408 551 384 581T290 612Q231 612 209 581T186 480Q186 412 209 383T288 353Z" />
<glyph unicode=":" glyph-name="colon" horiz-adv-x="276" d="M52 0V175H223V0H52ZM52 392V567H223V392H52Z" />
<glyph unicode=";" glyph-name="semicolon" horiz-adv-x="276" d="M52 392V567H223V392H52ZM97 -153L55 -77Q105 -51 116 -39T128 0H52V175H223V15Q223 -50 201 -82T97 -153Z" />
<glyph unicode="&lt;" glyph-name="less" horiz-adv-x="608" d="M483 77L91 294V398L483 615V470L249 347L483 223V77Z" />
<glyph unicode="=" glyph-name="equal" horiz-adv-x="609" d="M80 166V305H529V166H80ZM80 395V533H529V395H80Z" />
<glyph unicode="&gt;" glyph-name="greater" horiz-adv-x="609" d="M124 77V222L359 345L124 469V615L517 398V294L124 77Z" />
<glyph unicode="?" glyph-name="question" horiz-adv-x="572" d="M194 217Q193 304 209 342T294 435Q339 472 354 491T369 541Q369 576 348 593T269 610Q198 610 120 573L54 700Q156 750 295 750Q420 750 470 704T521 571Q521 520 507 484T476 429T422 379Q364
331 352 307T341 217H194ZM181 0V157H353V0H181Z" />
<glyph unicode="@" glyph-name="at" horiz-adv-x="861" d="M431 -165Q216 -165 127 -57T37 291Q37 530 126 639T431 748Q645 748 734 639T824 291Q824 147 792 90T664 32Q556 32 535 100Q496 32 371 32Q327 32 296 46T246 82T217 140T203 210T200 290Q200 349
206 391T230 471T284 530T374 550Q436 550 465 539T511 502L536 545L633 536V202Q634 178 635 170T638 148T645 130T658 123T679 119Q714 119 724 150T734 291Q734 494 666 580T431 666Q264 666 196 580T127 291T195 3T431 -83Q550 -83 662 -37L695 -114Q568 -165
431 -165ZM414 147Q468 147 484 179T500 289Q500 367 485 396T414 426Q366 426 351 395T335 288Q335 212 350 180T414 147Z" />
<glyph unicode="A" glyph-name="A" horiz-adv-x="656" d="M13 0L244 746H412L643 0H482L448 115H203L170 0H13ZM240 253H410L326 534L240 253Z" />
<glyph unicode="B" glyph-name="B" horiz-adv-x="616" d="M58 0V741H329Q454 741 510 693T566 551Q566 424 479 388Q532 370 556 327T581 207Q581 0 335 0H58ZM212 131H333Q378 131 400 151T423 219T401 286T332 305H212V131ZM212 442H324Q369 442 389 462T409
527Q409 570 390 588T324 606H212V442Z" />
<glyph unicode="C" glyph-name="C" horiz-adv-x="564" d="M324 -9Q160 -9 94 87T27 370Q27 460 40 525T87 643T182 723T336 750Q455 750 537 696L453 566Q404 597 331 597Q251 597 219 548T186 366Q186 234 218 183T332 132Q404 132 463 170L540 49Q448 -9 324 -9Z" />
<glyph unicode="D" glyph-name="D" horiz-adv-x="642" d="M58 0V741H289Q468 741 541 661T615 371Q615 226 582 146T480 33T289 0H58ZM215 136H303Q388 136 422 184T456 370Q456 464 440 513T391 580T299 598H215V136Z" />
<glyph unicode="E" glyph-name="E" horiz-adv-x="557" d="M58 0V741H515V598H211V450H502V308H211V140H516V0H58Z" />
<glyph unicode="F" glyph-name="F" horiz-adv-x="543" d="M58 0V741H516V598H215V438H502V296H215V0H58Z" />
<glyph unicode="G" glyph-name="G" horiz-adv-x="616" d="M315 -9Q231 -9 174 16T85 93T40 211T27 370Q27 572 97 661T342 750Q467 750 557 693L474 563Q410 599 335 599Q296 599 270 590T224 557T194 485T184 366Q184 226 215 175T329 124Q397 124 419 160T441
287V305H297V440H590V315Q590 131 534 61T315 -9Z" />
<glyph unicode="H" glyph-name="H" horiz-adv-x="677" d="M58 0V741H215V460H461V741H619V0H461V305H215V0H58Z" />
<glyph unicode="I" glyph-name="I" horiz-adv-x="290" d="M67 0V741H223V0H67Z" />
<glyph unicode="J" glyph-name="J" horiz-adv-x="391" d="M26 0V140H97Q144 140 162 157T180 213V741H337V203Q337 90 282 45T123 0H26Z" />
<glyph unicode="K" glyph-name="K" horiz-adv-x="639" d="M58 0V741H213V436L439 741H619L396 453L623 0H450L291 321L213 214V0H58Z" />
<glyph unicode="L" glyph-name="L" horiz-adv-x="513" d="M58 0V741H215V140H503V0H58Z" />
<glyph unicode="M" glyph-name="M" horiz-adv-x="805" d="M58 0V741H258L402 271L548 741H748V0H595V473L447 0H346L197 473V0H58Z" />
<glyph unicode="N" glyph-name="N" horiz-adv-x="673" d="M58 0V741H224L467 314V741H616V0H472L207 462V0H58Z" />
<glyph unicode="O" glyph-name="O" horiz-adv-x="668" d="M411 -9T334 -9T201 12T111 66T59 150T34 252T27 370T33 488T59 590T111 675T200 729T334 750T467 729T557 675T609 591T634 488T641 370T635 253T609 151T557 66T468 12ZM295 130T334 130T400 141T443
171T468 222T479 286T482 365Q482 411 480 443T468 507T443 557T400 587T334 599T268 588T225 558T200 507T189 443T186 365Q186 318 188 286T200 222T225 172T268 142Z" />
<glyph unicode="P" glyph-name="P" horiz-adv-x="613" d="M58 0V741H343Q472 741 529 680T587 500Q587 243 340 243H212V0H58ZM212 379H338Q389 379 411 405T434 491T412 577T338 603H212V379Z" />
<glyph unicode="Q" glyph-name="Q" horiz-adv-x="668" d="M434 -183Q333 -183 284 -145T235 -24V6Q183 17 146 42T86 100T50 179T32 269T27 370Q27 437 33 488T59 590T111 675T200 729T334 750T467 729T557 675T609 591T634 488T641 370Q641 309 636 262T614 166T571
85T496 29T386 0Q387 -30 401 -41T453 -52H528V-183H434ZM295 130T334 130T400 141T443 171T468 222T479 286T482 365Q482 411 480 443T468 507T443 557T400 587T334 599T268 588T225 558T200 507T189 443T186 365Q186 318 188 286T200 222T225 172T268 142Z" />
<glyph unicode="R" glyph-name="R" horiz-adv-x="624" d="M416 0L310 248H212V0H58V741H341Q470 741 527 682T585 505Q585 324 461 270L580 0H416ZM212 385H337Q388 385 410 410T432 494Q432 554 410 578T337 603H212V385Z" />
<glyph unicode="S" glyph-name="S" horiz-adv-x="583" d="M293 -9Q115 -9 13 58L92 178Q176 125 289 125Q351 125 376 144T402 201Q402 247 375 265T247 314Q141 347 94 395T46 532Q46 640 112 695T302 750Q432 750 529 704L461 570Q393 603 306 603Q250 603 225
588T199 537Q199 501 222 485T317 445Q389 422 429 404T501 358T543 295T554 204Q554 103 490 47T293 -9Z" />
<glyph unicode="T" glyph-name="T" horiz-adv-x="579" d="M210 0V598H11V741H568V598H368V0H210Z" />
<glyph unicode="U" glyph-name="U" horiz-adv-x="668" d="M334 -11Q181 -11 117 55T53 260V741H210V275Q210 196 236 163T336 130Q409 130 436 162T463 275V741H615V260Q615 122 552 56T334 -11Z" />
<glyph unicode="V" glyph-name="V" horiz-adv-x="648" d="M240 -5L13 741H174L327 222L477 741H636L408 -5H240Z" />
<glyph unicode="W" glyph-name="W" horiz-adv-x="899" d="M187 -5L21 741H181L277 291L384 741H523L631 291L727 741H877L712 -5H558L450 437L342 -5H187Z" />
<glyph unicode="X" glyph-name="X" horiz-adv-x="648" d="M457 0L315 251L185 0H16L236 390L39 741H212L331 530L439 741H609L410 389L630 0H457Z" />
<glyph unicode="Y" glyph-name="Y" horiz-adv-x="626" d="M234 0V251L-2 741H165L315 418L466 741H627L390 249V0H234Z" />
<glyph unicode="Z" glyph-name="Z" horiz-adv-x="564" d="M23 0V118L343 598H37V741H530V612L213 140H539V0H23Z" />
<glyph unicode="[" glyph-name="bracketleft" horiz-adv-x="444" d="M88 -158V769H375V639H242V-34H377V-158H88Z" />
<glyph unicode="\" glyph-name="backslash" horiz-adv-x="495" d="M342 0L0 741H153L495 0H342Z" />
<glyph unicode="]" glyph-name="bracketright" horiz-adv-x="444" d="M68 -158V-34H203V639H71V769H357V-158H68Z" />
<glyph unicode="^" glyph-name="asciicircum" horiz-adv-x="487" d="M65 570L174 753H313L423 570H303L242 649L182 570H65Z" />
<glyph unicode="_" glyph-name="underscore" horiz-adv-x="374" d="M-31 -150V-38H405V-150H-31Z" />
<glyph unicode="`" glyph-name="grave" horiz-adv-x="487" d="M203 620L58 803H226L332 620H203Z" />
<glyph unicode="a" glyph-name="a" horiz-adv-x="545" d="M202 -7Q99 -7 61 39T23 171Q23 287 90 331T314 375H334Q332 412 316 427T259 442Q177 442 115 412L54 534Q141 579 276 579Q391 579 435 536T480 386V175Q480 147 486 139T519 131V0Q503 -2 474 -2Q418
-2 394 7T358 45Q315 -7 202 -7ZM237 117Q285 117 309 139T334 216V268H315Q229 268 198 252T167 188Q167 150 183 134T237 117Z" />
<glyph unicode="b" glyph-name="b" horiz-adv-x="568" d="M48 5V769H198V524Q238 578 352 578Q401 578 436 562T492 520T523 455T538 376T542 285T538 194T522 115T489 50T432 9T346 -7Q272 -7 241 4T181 43L158 -6L48 5ZM300 124Q354 124 371 159T389 278Q389
364 372 400T300 436Q238 436 219 399T199 278T218 159T300 124Z" />
<glyph unicode="c" glyph-name="c" horiz-adv-x="448" d="M264 -8Q128 -8 77 64T26 285Q26 358 36 408T73 498T149 557T273 577Q367 577 430 547L364 416Q326 436 281 436Q224 436 202 401T180 280Q180 192 202 158T284 123Q325 123 379 146L436 31Q355 -8 264 -8Z" />
<glyph unicode="d" glyph-name="d" horiz-adv-x="568" d="M216 -7Q156 -7 117 15T59 82T34 173T27 286Q27 329 30 362T40 431T61 491T96 536T150 567T223 577Q330 577 369 534V769H521V5L400 -5L388 47Q342 -7 216 -7ZM268 124Q330 124 349 161T369 283Q369 366
350 401T268 437Q214 437 197 402T179 283Q179 197 196 161T268 124Z" />
<glyph unicode="e" glyph-name="e" horiz-adv-x="515" d="M267 -7Q194 -7 146 12T72 71T36 161T26 285Q26 431 80 504T271 577Q336 577 379 560T444 511T475 434T486 334T485 216H172Q177 164 198 143T275 122Q354 122 424 155L481 40Q393 -7 267 -7ZM267 445Q214
445 194 419T171 333H352Q350 397 336 421T267 445Z" />
<glyph unicode="f" glyph-name="f" horiz-adv-x="390" d="M12 435V567H104V613Q104 787 302 787Q350 787 384 785V655H317Q279 655 267 642T255 596V567H384V435H255V0H104V435H12Z" />
<glyph unicode="g" glyph-name="g" horiz-adv-x="547" d="M264 200Q222 200 203 203Q202 198 202 188Q202 170 216 164T275 158Q421 158 471 127T521 10Q521 -87 460 -127T265 -168Q127 -168 69 -140T10 -33Q10 73 106 96Q76 122 76 174Q76 212 96 241Q37 284
37 384Q37 485 94 531T264 578Q282 578 293 577L516 623V506H439Q492 471 492 384Q492 285 433 243T264 200ZM263 -63Q327 -63 347 -49T368 0Q368 29 349 39T264 50Q205 50 183 37T160 -6T182 -49T263 -63ZM264 308Q307 308 325 326T344 381Q344 417 326 435T264
453Q185 453 185 381Q185 308 264 308Z" />
<glyph unicode="h" glyph-name="h" horiz-adv-x="562" d="M48 0V769H198V527Q237 577 352 577Q402 577 436 562T487 518T511 454T518 371V0H366V333Q366 388 353 410T293 433Q236 433 218 407T199 312V0H48Z" />
<glyph unicode="i" glyph-name="i" horiz-adv-x="256" d="M52 0V567H203V0H52ZM52 618V755H204V618H52Z" />
<glyph unicode="j" glyph-name="j" horiz-adv-x="256" d="M1 -158V-37H12Q39 -37 45 -26T52 22V567H203V17Q203 -82 166 -120T24 -158H1ZM52 618V755H204V618H52Z" />
<glyph unicode="k" glyph-name="k" horiz-adv-x="523" d="M48 0V769H196V339L350 567H509L342 330L519 0H358L243 207L196 137V0H48Z" />
<glyph unicode="l" glyph-name="l" horiz-adv-x="293" d="M262 0Q250 -2 207 -2Q125 -2 89 32T52 161V769H203V182Q203 149 212 140T262 131V0Z" />
<glyph unicode="m" glyph-name="m" horiz-adv-x="855" d="M48 0V558L169 568L180 523Q221 577 347 577Q456 577 480 522Q525 577 656 577Q707 577 739 563T788 518T809 454T815 371V0H665V333Q665 390 653 411T596 433Q541 433 524 407T506 312V0H356V333Q356
390 345 411T288 433Q232 433 215 406T197 312V0H48Z" />
<glyph unicode="n" glyph-name="n" horiz-adv-x="562" d="M48 0V558L169 568L180 523Q223 577 352 577Q402 577 436 562T487 518T511 454T518 371V0H366V333Q366 388 353 410T293 433Q236 433 218 406T199 312V0H48Z" />
<glyph unicode="o" glyph-name="o" horiz-adv-x="551" d="M276 -9Q135 -9 81 65T26 285Q26 430 80 503T276 577Q350 577 400 557T476 496T514 405T525 285Q525 212 514 162T477 71T400 11T276 -9ZM216 123T276 123T354 160T373 280Q373 364 355 400T276 436T197
400T179 280Q179 197 197 160Z" />
<glyph unicode="p" glyph-name="p" horiz-adv-x="568" d="M48 -158V558L169 568L179 523Q224 577 352 577Q401 577 436 561T492 520T523 454T538 376T542 285Q542 219 535 172T508 81T448 16T346 -7Q240 -7 199 37V-158H48ZM300 124Q353 124 371 159T389 278Q389
364 372 400T300 436Q238 436 219 399T199 278T218 159T300 124Z" />
<glyph unicode="q" glyph-name="q" horiz-adv-x="568" d="M370 -158V44Q330 -7 216 -7Q156 -7 117 15T59 82T34 173T27 286Q27 329 30 362T40 431T61 491T96 536T150 567T223 577Q296 577 331 566T388 530L410 572L521 562V-158H370ZM268 124Q330 124 349 161T369
283Q369 366 350 401T268 437Q214 437 197 402T179 283Q179 197 196 161T268 124Z" />
<glyph unicode="r" glyph-name="r" horiz-adv-x="345" d="M48 0V558L168 568L181 515Q224 572 339 572V429Q301 429 275 421T234 402T212 370T202 331T200 284V0H48Z" />
<glyph unicode="s" glyph-name="s" horiz-adv-x="454" d="M231 -7Q88 -7 8 35L66 152Q142 115 231 115Q294 115 294 159Q294 183 275 195T184 231Q127 250 97 268T48 319T29 403Q29 577 241 577Q344 577 417 547L359 422Q301 446 235 446Q200 446 187 437T173
406Q173 386 192 374T271 342Q363 312 399 276T435 161Q435 -7 231 -7Z" />
<glyph unicode="t" glyph-name="t" horiz-adv-x="415" d="M12 435V567H108L131 694L251 721V567H380V435H251V191Q251 158 262 145T315 131H380V0Q315 -5 296 -5Q184 -5 143 35T101 173V435H12Z" />
<glyph unicode="u" glyph-name="u" horiz-adv-x="552" d="M276 -8Q142 -8 93 46T44 232V567H196V240Q196 173 209 150T278 126Q331 126 345 150T359 241V567H508V232Q508 99 461 46T276 -8Z" />
<glyph unicode="v" glyph-name="v" horiz-adv-x="519" d="M176 -5L2 567H160L263 193L366 567H518L342 -5H176Z" />
<glyph unicode="w" glyph-name="w" horiz-adv-x="761" d="M148 -5L10 567H163L232 235L315 567H454L536 241L606 567H751L614 -5H466L381 313L298 -5H148Z" />
<glyph unicode="x" glyph-name="x" horiz-adv-x="507" d="M341 0L245 167L156 0H2L170 298L16 567H180L262 423L337 567H491L337 292L504 0H341Z" />
<glyph unicode="y" glyph-name="y" horiz-adv-x="498" d="M68 -158V-37H132Q151 -37 159 -32T171 -13L174 0L1 567H156L252 219L347 567H496L309 -44Q288 -113 249 -135T131 -158H68Z" />
<glyph unicode="z" glyph-name="z" horiz-adv-x="447" d="M12 0V100L238 435H26V567H428V465L200 123H437V0H12Z" />
<glyph unicode="{" glyph-name="braceleft" horiz-adv-x="474" d="M300 -158Q204 -158 162 -125T119 -23Q119 6 139 95T160 198Q160 226 139 234T55 242V369Q118 369 139 376T160 412Q160 431 140 517T119 633Q119 702 161 735T298 769H408V639H346Q310 639 293
627T275 583Q275 563 293 489T311 386Q311 324 255 306Q311 285 311 225Q311 190 293 116T275 26Q275 -34 346 -34H408V-158H300Z" />
<glyph unicode="|" glyph-name="bar" horiz-adv-x="329" d="M88 -158V769H242V-158H88Z" />
<glyph unicode="}" glyph-name="braceright" horiz-adv-x="474" d="M67 -158V-34H128Q200 -34 200 26Q200 41 182 115T163 225Q163 286 219 306Q163 326 163 386Q163 414 181 488T200 583Q200 615 182 627T128 639H67V769H176Q271 769 313 736T355 633Q355 603
335 517T314 412Q314 385 334 378T420 370V242Q356 242 335 235T314 198Q314 185 334 96T355 -23Q355 -91 313 -124T175 -158H67Z" />
<glyph unicode="~" glyph-name="asciitilde" horiz-adv-x="487" d="M127 360L30 416Q86 526 176 526Q206 526 244 505T294 483Q322 483 357 531L453 475Q423 417 389 391T308 364Q278 364 240 385T190 406Q159 406 127 360Z" />
</font>
</defs>
</svg>
